<svg xmlns="http://www.w3.org/2000/svg" enable-background="new 0 0 32 32" viewBox="0 0 32 32" id="fire"><g><path fill="#e96565" d="M18.162,2.125c0.43-0.327,1.051,0.03,0.948,0.56c-0.342,1.751,0.175,4.799,4.885,9.094
		c7.855,7.163,1.111,19.051-8.252,18.165c-4.429-0.419-9.953-4.742-11.006-10.552c-0.753-4.15,0.959-7.597,2.283-9.543
		c0.322-0.473,1.042-0.263,1.082,0.308c0.048,0.68,0.223,1.472,0.66,2.287c0.2,0.372,0.427,0.7,0.666,0.988
		c0.74,0.89,2.178,0.398,2.339-0.748c0.167-1.18,0.498-2.537,1.122-3.971C14.268,5.544,16.463,3.416,18.162,2.125z"></path><path fill="#e05353" d="M18.998,2.231c0.093,0.113,0.134,0.279,0.103,0.454c-0.33,1.754,0.175,4.798,4.891,9.08
		c7.615,6.954,1.506,18.366-7.419,18.211c3.178-0.268,5.747-4.715,5.149-7.088c1.032-2.786,0.836-6.057-1.29-9.173
		C14.881,5.584,18.44,2.623,18.998,2.231z"></path><path fill="#ffd731" d="M21.633,22.585c0.959,2.411-2.046,7.663-5.633,7.405c-2.698-0.194-4.637-3.424-4.814-6.083
		c-0.34-5.105,5.76-8.932,6.876-8.225c0.553,0.351-0.371,1.656,0.397,3.491C19.303,21.19,21.067,21.162,21.633,22.585z"></path><path fill="#ffc933" d="M16,29.99c-0.16-0.01-0.31-0.03-0.46-0.06c2.67-1.13,4.84-4.41,4.41-6.41c-0.34-1.57-2.17-1.86-2.69-4.1
		c-0.47-2.03,0.72-3.23,0.2-3.69c-0.03-0.03-0.07-0.06-0.11-0.08c0.31-0.08,0.56-0.07,0.71,0.03c0.56,0.35-0.37,1.66,0.4,3.49
		c0.84,2.02,2.61,1.99,3.17,3.42C22.59,25,19.59,30.25,16,29.99z"></path><path fill="#ff9292" d="M6.506 18.812c.232-.026.401-.236.376-.47-.139-1.26-.014-2.547.372-3.825.067-.226-.06-.462-.284-.53-.229-.066-.463.061-.53.284-.418 1.39-.554 2.79-.403 4.165.024.217.208.378.422.378C6.474 18.813 6.489 18.813 6.506 18.812zM7.254 20.11c-.072-.222-.304-.32-.529-.25-.223.073-.337.335-.264.558l.059.178c.061.177.226.287.402.287.046 0 .092-.007.138-.022.222-.076.341-.318.265-.54L7.254 20.11z"></path></g></svg>