<svg xmlns="http://www.w3.org/2000/svg" viewBox="0 0 64 64" id="school"><path fill="#ff9811" d="M46,4v6c-4.67-1.8-9.33,1.8-14,0V4C36.67,5.8,41.33,2.2,46,4Z"></path><path fill="#e0e0e2" d="M33,15H31V3a1,1,0,0,1,1-1h0a1,1,0,0,1,1,1Z"></path><rect width="56" height="25" x="4" y="25" fill="#e0e0e2"></rect><path fill="#9bfbff" d="M14,33.5V37H9V33.5a2.5,2.5,0,1,1,5,0Z"></path><rect width="9" height="2" x="7" y="36" fill="#004fac"></rect><path fill="#bdfdff" d="M11.5,31A2.5,2.5,0,0,0,9,33.5V36l4.27-4.27A2.5,2.5,0,0,0,11.5,31Z"></path><polygon fill="#ffda44" points="61 25 3 25 8 17 56 17 61 25"></polygon><polygon fill="#ff5023" points="47 24 47 28 45 26.67 32 18 19 26.67 17 28 17 24 32 14 47 24"></polygon><rect width="58" height="4" x="3" y="50" fill="#3e3d42"></rect><polygon fill="#acabb1" points="45 26.67 45 50 19 50 19 26.67 32 18 45 26.67"></polygon><polygon fill="#898890" points="32 18 19 26.67 19 27.67 32 19 45 27.67 45 26.67 32 18"></polygon><path fill="#a78966" d="M27,50V43a5,5,0,1,1,10,0v7Z"></path><circle cx="32" cy="29" r="5" fill="#ffda44"></circle><rect width="2" height="2" x="29" y="44" fill="#231f20"></rect><path fill="#fff" d="M30.707,31.707l-1.414-1.414L31,28.586V26h2v3a1,1,0,0,1-.293.707Z"></path><path fill="#9bfbff" d="M55,33.5V37H50V33.5a2.5,2.5,0,1,1,5,0Z"></path><rect width="9" height="2" x="48" y="36" fill="#004fac"></rect><path fill="#bdfdff" d="M52.5,31A2.5,2.5,0,0,0,50,33.5V36l4.27-4.27A2.5,2.5,0,0,0,52.5,31Z"></path><rect width="13" height="1" x="4" y="25" fill="#c6c5ca"></rect><rect width="13" height="1" x="47" y="25" fill="#c6c5ca"></rect></svg>