<svg xmlns="http://www.w3.org/2000/svg" width="163.839" height="163.839" fill-rule="evenodd" clip-rule="evenodd" image-rendering="optimizeQuality" shape-rendering="geometricPrecision" text-rendering="geometricPrecision" viewBox="0 0 1707 1707" id="treasure"><path fill="#2b1330" fill-rule="nonzero" d="M72 898l205 0c10,-33 31,-62 60,-82 -16,-51 -2,-103 28,-140l-190 0 -103 222zm247 0l1041 0c-9,-21 -38,-42 -14,-58 111,-72 20,-244 -102,-194l0 0c-12,5 -28,-2 -28,-20 0,-76 -74,-128 -145,-105l0 0c-16,8 -54,37 -63,6 -35,-141 -234,-148 -281,-11l0 0c-8,24 -29,7 -59,7 -68,0 -120,62 -108,129l0 0c2,16 -14,29 -29,21 -97,-49 -192,57 -151,142 15,32 -39,27 -61,83zm1084 0l236 0 -72 -222 -150 0c31,57 27,133 -32,185 5,7 13,22 18,37zm-18 -262l181 0 74 -288 -1571 0 107 288 240 0c30,-14 65,-19 102,-10 5,-90 88,-157 178,-140 68,-148 280,-145 343,6 6,-4 13,-6 19,-9l0 0c88,-29 181,28 196,118 53,-11 99,5 131,35zm4 302l-359 0 0 245c0,155 -190,236 -301,125 -32,-32 -52,-76 -52,-125l0 -245 -616 0 0 157 167 0c11,0 20,9 20,20l0 375c0,11 -9,20 -20,20l-167 0 0 157 1585 0 0 -157 -168 0c-11,0 -20,-9 -20,-20l0 -375c0,-11 9,-20 20,-20l168 0 0 -157 -257 0zm257 197l-148 0 0 335 148 0 0 -335zm-1438 0l-147 0 0 335 147 0 0 -335zm612 -164l67 0c11,0 20,9 20,20l0 103c65,51 28,156 -54,156 -82,0 -118,-105 -53,-156l0 -103c0,-11 9,-20 20,-20zm47 40l-27 0 0 94 0 0c0,22 -34,19 -34,58 0,62 94,62 94,0 0,-39 -33,-36 -33,-58l0 -94zm102 -703c0,-35 5,-66 -15,-87 -9,-9 -22,-15 -36,-15l-129 0c-28,0 -51,23 -51,51l0 51c77,0 154,0 231,0zm-271 0c-1,-46 -4,-85 27,-115 16,-17 39,-27 64,-27l129 0c50,0 91,41 91,91l0 51 637 0c-9,-149 -134,-268 -285,-268l-1016 0c-150,0 -275,119 -284,268l637 0zm19 630l0 245c0,120 146,183 233,96 24,-24 40,-58 40,-96l0 -245 -273 0zm968 -603l-82 320 83 263 0 769c0,11 -9,20 -20,20l-1625 0c-11,0 -20,-9 -20,-20l0 -769c0,-10 106,-234 120,-263l-119 -320 -1 -10c0,-179 146,-325 324,-325l1016 0c179,0 325,145 325,328 0,2 0,5 -1,7z"></path><polygon fill="#ffde46" fill-rule="nonzero" points="208 1135 61 1135 61 1470 208 1470"></polygon><path fill="#b55434" fill-rule="nonzero" d="M248 1115l0 375c0,11 -9,20 -20,20l-167 0 0 157 1585 0 0 -157 -168 0c-11,0 -20,-9 -20,-20l0 -375c0,-11 9,-20 20,-20l168 0 0 -157 -257 0 -359 0 0 245c0,155 -190,236 -301,125 -32,-32 -52,-76 -52,-125l0 -245 -616 0 0 157 167 0c11,0 20,9 20,20z"></path><path fill="#ffde46" fill-rule="nonzero" d="M717 1183c0,120 146,183 233,96 24,-24 40,-58 40,-96l0 -245 -273 0 0 245zm136 67c-82,0 -118,-105 -53,-156l0 -103c0,-11 9,-20 20,-20l67 0c11,0 20,9 20,20l0 103c65,51 28,156 -54,156z"></path><path fill="#93442a" fill-rule="nonzero" d="M840 1105l0 0zm-34 58c0,62 94,62 94,0 0,-39 -33,-36 -33,-58l0 -94 -27 0 0 94c0,22 -34,19 -34,58z"></path><polygon fill="#ffde46" fill-rule="nonzero" points="1498 1135 1498 1470 1646 1470 1646 1135"></polygon><path fill="#ffde46" fill-rule="nonzero" d="M1071 521l0 0zm-344 -5l0 0zm-167 136l0 0zm-241 246l1041 0c-9,-21 -38,-42 -14,-58 111,-72 20,-244 -102,-194 -12,5 -28,-2 -28,-20 0,-76 -74,-128 -145,-105 -16,8 -54,37 -63,6 -35,-141 -234,-148 -281,-11 -8,24 -29,7 -59,7 -68,0 -120,62 -108,129 2,16 -14,29 -29,21 -97,-49 -192,57 -151,142 15,32 -39,27 -61,83z"></path><path fill="#a1412b" fill-rule="nonzero" d="M1417 676c31,57 27,133 -32,185 5,7 13,22 18,37l236 0 -72 -222 -150 0z"></path><path fill="#913b27" fill-rule="nonzero" d="M1058 483l0 0zm327 153l181 0 74 -288 -1571 0 107 288 240 0c30,-14 65,-19 102,-10 5,-90 88,-157 178,-140 68,-148 280,-145 343,6 6,-4 13,-6 19,-9 88,-29 181,28 196,118 53,-11 99,5 131,35z"></path><path fill="#ffde46" fill-rule="nonzero" d="M738 308l231 0c0,-35 5,-66 -15,-87 -9,-9 -22,-15 -36,-15l-129 0c-28,0 -51,23 -51,51l0 51z"></path><path fill="#a1412b" fill-rule="nonzero" d="M1009 257l0 51 637 0c-9-149-134-268-285-268l-1016 0c-150 0-275 119-284 268l637 0c-1-46-4-85 27-115 16-17 39-27 64-27l129 0c50 0 91 41 91 91zM337 816c-16-51-2-103 28-140l-190 0-103 222 205 0c10-33 31-62 60-82z"></path></svg>