<svg xmlns="http://www.w3.org/2000/svg" viewBox="0 0 64 64" id="shop"><g data-name="shop"><rect width="50" height="42" x="7" y="15" fill="#e0e0e2"></rect><path fill="#898890" d="M57,22.87v1A3.657,3.657,0,0,1,56,24a4,4,0,0,1-4-4,4,4,0,0,1-8,0,4,4,0,0,1-8,0,4,4,0,0,1-8,0,4,4,0,0,1-8,0,4,4,0,0,1-8,0,4,4,0,0,1-4,4,3.657,3.657,0,0,1-1-.13v-1A3.657,3.657,0,0,0,8,23a4,4,0,0,0,4-4,4,4,0,0,0,8,0,4,4,0,0,0,8,0,4,4,0,0,0,8,0,4,4,0,0,0,8,0,4,4,0,0,0,8,0,4,4,0,0,0,4,4A3.657,3.657,0,0,0,57,22.87Z"></path><rect width="15" height="20" x="15" y="37" fill="#00d7df"></rect><rect width="16" height="14" x="36" y="28" fill="#787680"></rect><rect width="15" height="6" x="15" y="43" fill="#bdfdff"></rect><rect width="58" height="4" x="3" y="57" fill="#3e3d42"></rect><path fill="#ff5023" d="M60,11v8a3.992,3.992,0,0,1-3,3.87A3.657,3.657,0,0,1,56,23a4,4,0,0,1-4-4V11Z"></path><polygon fill="#ff7956" points="60 11 4 11 6 3 58 3 60 11"></polygon><path fill="#ffda44" d="M52,28v2a2,2,0,0,1-4,0V28Z"></path><path fill="#ff9811" d="M52 11v8a4 4 0 0 1-8 0V11zM48 28v2a2 2 0 0 1-4 0V28z"></path><path fill="#ffda44" d="M44,28v2a2,2,0,0,1-4,0V28Z"></path><path fill="#ff5023" d="M44,11v8a4,4,0,0,1-8,0V11Z"></path><path fill="#ff9811" d="M40 28v2a2 2 0 0 1-4 0V28zM36 11v8a4 4 0 0 1-8 0V11z"></path><path fill="#ff5023" d="M28,11v8a4,4,0,0,1-8,0V11Z"></path><path fill="#ff9811" d="M20,11v8a4,4,0,0,1-8,0V11Z"></path><path fill="#ff5023" d="M12,11v8a4,4,0,0,1-4,4,3.657,3.657,0,0,1-1-.13A3.992,3.992,0,0,1,4,19V11Z"></path><rect width="2" height="2" x="17.74" y="45" fill="#231f20"></rect><rect width="20" height="2" x="34" y="41" fill="#004fac"></rect><rect width="20" height="2" x="34" y="27" fill="#004fac"></rect><rect width="1" height="3" x="16" y="38" fill="#fff"></rect><rect width="10" height="3" x="8" y="4" fill="#ffe682" rx="1.5"></rect><rect width="2" height="5" x="5" y="12" fill="#ff7754" rx="1"></rect></g></svg>