<svg xmlns="http://www.w3.org/2000/svg" viewBox="0 0 64 64" id="thunder"><g fill="#FBB03B"><path d="M36.734 27.32a1.005 1.005 0 0 0-1.028-.276l-11.384 3.503L29.98 3.202a.999.999 0 0 0-.685-1.157.997.997 0 0 0-1.218.57l-15 36a1 1 0 0 0 1.217 1.341l11.475-3.531-3.757 24.423a1 1 0 0 0 1.918.518l13-33a1 1 0 0 0-.196-1.046z"></path><path d="M50.751 13.34a.996.996 0 0 0-1.067-.288L39.219 16.54 40.99 4.142a1 1 0 0 0-1.909-.535l-9 21a1 1 0 0 0 1.235 1.341L41.45 22.57l-6.404 20.127A.999.999 0 0 0 36 44a1 1 0 0 0 .901-.565l14-29a1.002 1.002 0 0 0-.15-1.095z"></path></g><g fill="#FBB03B"><path d="M61 32h-1v-1a1 1 0 1 0-2 0v1h-1a1 1 0 1 0 0 2h1v1a1 1 0 1 0 2 0v-1h1a1 1 0 1 0 0-2zM55 7h-1V6a1 1 0 1 0-2 0v1h-1a1 1 0 1 0 0 2h1v1a1 1 0 1 0 2 0V9h1a1 1 0 1 0 0-2zM15 8h-1V7a1 1 0 1 0-2 0v1h-1a1 1 0 1 0 0 2h1v1a1 1 0 1 0 2 0v-1h1a1 1 0 1 0 0-2zM41 56h-1v-1a1 1 0 1 0-2 0v1h-1a1 1 0 1 0 0 2h1v1a1 1 0 1 0 2 0v-1h1a1 1 0 1 0 0-2zM7 54H6v-1a1 1 0 1 0-2 0v1H3a1 1 0 1 0 0 2h1v1a1 1 0 1 0 2 0v-1h1a1 1 0 1 0 0-2z"></path></g><path fill="#4D4D4D" d="M50 50c-1.654 0-3-1.346-3-3s1.346-3 3-3 3 1.346 3 3-1.346 3-3 3zm0-4a1.001 1.001 0 0 0 0 2 1.001 1.001 0 0 0 0-2zM8 29c-1.654 0-3-1.346-3-3s1.346-3 3-3 3 1.346 3 3-1.346 3-3 3zm0-4a1.001 1.001 0 0 0 0 2 1.001 1.001 0 0 0 0-2zM55 25c-1.654 0-3-1.346-3-3s1.346-3 3-3 3 1.346 3 3-1.346 3-3 3zm0-4a1.001 1.001 0 0 0 0 2 1.001 1.001 0 0 0 0-2z"></path></svg>