<svg xmlns="http://www.w3.org/2000/svg" viewBox="0 0 32 32" id="account"><circle cx="16" cy="16" r="15" fill="#96d7ff"></circle><path fill="#86c3ef" d="M2.35,17A15,15,0,0,1,25.59,4.48a15,15,0,1,0-17.83,24A15,15,0,0,1,2.35,17Z"></path><path fill="#ffc661" d="M16,31a15,15,0,0,0,10.06-3.9,1.35,1.35,0,0,0,0-.29,6.64,6.64,0,0,0-6.27-4.52H12.26A6.64,6.64,0,0,0,6,26.81a1.35,1.35,0,0,0,0,.29A15,15,0,0,0,16,31Z"></path><path fill="#e49f4e" d="M13,23.29h7.47a6.57,6.57,0,0,1,5.1,2.44,6.61,6.61,0,0,0-5.78-3.44H12.26A6.64,6.64,0,0,0,6,26.81a1.35,1.35,0,0,0,0,.29c.25.22.51.43.77.63A6.64,6.64,0,0,1,13,23.29Z"></path><path fill="#ecc5b4" d="M18.7,15.83H13.3a1,1,0,0,0-1,1V23.3a1,1,0,0,0,.45.83l2.7,1.8a1,1,0,0,0,1.1,0l2.7-1.8a1,1,0,0,0,.45-.83V16.83A1,1,0,0,0,18.7,15.83Z"></path><path fill="#ecc5b4" d="M21.5,13.67h-11a3,3,0,0,0,0,6h11a3,3,0,0,0,0-6Z"></path><path fill="#f4dab7" d="M18.46,9.87H13.54a3.49,3.49,0,0,0-3.49,3.49v3.36a5.95,5.95,0,0,0,11.9,0V13.36A3.49,3.49,0,0,0,18.46,9.87Z"></path><path fill="#d6b5b0" d="M23.65,6.92h-7.2a6.41,6.41,0,0,0-6.4,6.4,1,1,0,0,0,1,1h7.2a6.41,6.41,0,0,0,6.4-6.4A1,1,0,0,0,23.65,6.92Z"></path><path fill="#bf9e99" d="M16.67,8h7.2a1,1,0,0,1,.76.37c0-.17,0-.33,0-.49a1,1,0,0,0-1-1h-7.2a6.41,6.41,0,0,0-6.4,6.4,1,1,0,0,0,.24.63A6.42,6.42,0,0,1,16.67,8Z"></path></svg>