<?xml version="1.0" encoding="UTF-8"?>
<!DOCTYPE svg PUBLIC "-//W3C//DTD SVG 1.1//EN" "http://www.w3.org/Graphics/SVG/1.1/DTD/svg11.dtd">
<svg xmlns="http://www.w3.org/2000/svg" version="1.1" width="140px" height="128px" style="shape-rendering:geometricPrecision; text-rendering:geometricPrecision; image-rendering:optimizeQuality; fill-rule:evenodd; clip-rule:evenodd" xmlns:xlink="http://www.w3.org/1999/xlink">
<g><path style="opacity:1" fill="#426f7e" d="M 58.5,-0.5 C 65.8333,-0.5 73.1667,-0.5 80.5,-0.5C 103.866,4.12734 120.366,17.4607 130,39.5C 131.562,43.0145 132.395,46.6811 132.5,50.5C 116.824,11.6604 88.4905,-2.83957 47.5,7C 23.4348,17.5479 9.4348,35.7146 5.5,61.5C 7.44061,33.7865 21.1073,14.2865 46.5,3C 50.6469,1.89052 54.6469,0.723852 58.5,-0.5 Z"/></g>
<g><path style="opacity:1" fill="#375a66" d="M 132.5,50.5 C 135.091,61.7661 134.758,73.0994 131.5,84.5C 126.994,93.3439 121.661,101.677 115.5,109.5C 113.098,111.909 110.431,113.909 107.5,115.5C 96.1625,107.224 83.3291,103.224 69,103.5C 54.9633,103.013 42.4633,107.013 31.5,115.5C 29.1415,113.471 26.8082,111.471 24.5,109.5C 17.348,101.522 12.0146,92.5218 8.5,82.5C 6.12482,75.7184 5.12482,68.7184 5.5,61.5C 9.4348,35.7146 23.4348,17.5479 47.5,7C 88.4905,-2.83957 116.824,11.6604 132.5,50.5 Z"/></g>
<g><path style="opacity:1" fill="#d3ecf5" d="M 33.5,42.5 C 51.8768,41.2705 59.0434,49.6038 55,67.5C 52.9225,75.1779 48.7558,81.3446 42.5,86C 30.8258,91.2407 23.9925,87.4073 22,74.5C 20.9682,66.6688 21.6349,59.0022 24,51.5C 26.4057,47.5915 29.5724,44.5915 33.5,42.5 Z"/></g>
<g><path style="opacity:1" fill="#d3ecf5" d="M 93.5,42.5 C 106.42,40.0327 114.587,45.0327 118,57.5C 119.407,66.5153 118.407,75.1819 115,83.5C 109.914,89.1158 104.081,89.9491 97.5,86C 85.5619,76.1946 81.7286,64.0279 86,49.5C 88.3959,46.9334 90.8959,44.6 93.5,42.5 Z"/></g>
<g><path style="opacity:1" fill="#fafbfb" d="M 37.5,55.5 C 47.999,55.1866 52.499,60.1866 51,70.5C 48.0812,76.0248 43.5812,77.8581 37.5,76C 31.7032,73.2399 29.5365,68.7399 31,62.5C 32.6941,59.6424 34.8607,57.309 37.5,55.5 Z"/></g>
<g><path style="opacity:1" fill="#fafbfb" d="M 94.5,55.5 C 105.458,54.7683 109.958,59.7683 108,70.5C 105.081,76.0248 100.581,77.8581 94.5,76C 88.8912,72.7231 87.0578,67.8897 89,61.5C 90.3597,58.9774 92.193,56.9774 94.5,55.5 Z"/></g>
<g><path style="opacity:1" fill="#616161" d="M 39.5,61.5 C 48.3058,61.464 50.6391,65.2974 46.5,73C 42.7298,75.2786 39.3965,74.7786 36.5,71.5C 34.7384,67.2916 35.7384,63.9583 39.5,61.5 Z"/></g>
<g><path style="opacity:1" fill="#616161" d="M 94.5,61.5 C 101.497,60.6662 104.664,63.6662 104,70.5C 100.352,75.3313 96.3524,75.6646 92,71.5C 91.0239,67.673 91.8572,64.3396 94.5,61.5 Z"/></g>
<g><path style="opacity:1" fill="#fa9703" d="M 85.5,82.5 C 75.1423,87.7343 64.809,87.7343 54.5,82.5C 57.5698,69.1303 65.5698,64.9636 78.5,70C 82.8236,73.1553 85.1569,77.3219 85.5,82.5 Z"/></g>
<g><path style="opacity:1" fill="#d98406" d="M 54.5,82.5 C 64.809,87.7343 75.1423,87.7343 85.5,82.5C 85.1937,88.645 81.8604,92.145 75.5,93C 67.6323,94.819 60.799,92.9857 55,87.5C 54.5065,85.8659 54.3398,84.1992 54.5,82.5 Z"/></g>
<g><path style="opacity:0.999" fill="#28444e" d="M 8.5,82.5 C 12.0146,92.5218 17.348,101.522 24.5,109.5C 19.0801,113.198 13.0801,114.365 6.5,113C 2.55468,110.914 0.221343,107.747 -0.5,103.5C -0.5,102.5 -0.5,101.5 -0.5,100.5C 0.384409,97.9768 1.21774,95.3102 2,92.5C 4.02216,88.9965 6.18882,85.6632 8.5,82.5 Z"/></g>
<g><path style="opacity:1" fill="#28444e" d="M 131.5,84.5 C 135.171,87.8456 137.838,91.8456 139.5,96.5C 139.5,99.8333 139.5,103.167 139.5,106.5C 135.698,113.05 130.032,115.216 122.5,113C 119.826,112.33 117.493,111.163 115.5,109.5C 121.661,101.677 126.994,93.3439 131.5,84.5 Z"/></g>
<g><path style="opacity:0.997" fill="#eff7f9" d="M 107.5,115.5 C 100.06,121.387 91.7268,125.387 82.5,127.5C 74.1667,127.5 65.8333,127.5 57.5,127.5C 48.0781,125.122 39.4115,121.122 31.5,115.5C 42.4633,107.013 54.9633,103.013 69,103.5C 83.3291,103.224 96.1625,107.224 107.5,115.5 Z"/></g>
</svg>
