<svg xmlns="http://www.w3.org/2000/svg" viewBox="0 0 64 64" id="france"><g data-name="05-France"><path fill="#e21743" d="M63 5v54a4 4 0 0 1-4 4H43V1h16a4 4 0 0 1 4 4Z"></path><path fill="#eef2fa" d="M21 1h22v62H21z"></path><path fill="#2448a8" d="M21 1v62H5a4 4 0 0 1-4-4V5a4 4 0 0 1 4-4Z"></path><path fill="#c7002b" d="M43 38.905V63h16a4 4 0 0 0 4-4V17a22 22 0 0 1-20 21.905Z"></path><path fill="#dce1eb" d="M41 39H23a22.03 22.03 0 0 1-2-.095V63h22V38.905A22.03 22.03 0 0 1 41 39Z"></path><path fill="#1f3d8f" d="M1 17v42a4 4 0 0 0 4 4h16V38.905A22 22 0 0 1 1 17Z"></path><path fill="none" d="M21 5h22v54H21z"></path><path fill="#172e6b" d="M5 59a4 4 0 0 1-4-4v4a4 4 0 0 0 4 4h16v-4Z"></path><path fill="#cdd2e1" d="M21 59h22v4H21z"></path><path fill="#b51135" d="M59 63a4 4 0 0 0 4-4v-4a4 4 0 0 1-4 4H43v4Z"></path><path fill="#ea5172" d="M59 5a4 4 0 0 1 4 4V5a4 4 0 0 0-4-4H43v4Z"></path><path fill="#376dff" d="M5 1a4 4 0 0 0-4 4v4a4 4 0 0 1 4-4h16V1Z"></path><path fill="#f7faff" d="M21 1h22v4H21z"></path></g></svg>
